<?xml version="1.0" encoding="UTF-8"?>
<svg width="301px" height="302px" viewBox="0 0 301 302" version="1.1" xmlns="http://www.w3.org/2000/svg" xmlns:xlink="http://www.w3.org/1999/xlink">
    <title>Pic Puller for Craft CMS</title>
    <desc>Pic Puller for Craft CMS</desc>
    <defs></defs>
    <g id="Page-1" stroke="none" stroke-width="1" fill="none" fill-rule="evenodd">
        <g id="icon" fill-rule="nonzero">
            <path d="M102.4,174.5 L60.8,174.5 L60.8,270.85 C78.0384441,283.862331 97.8953709,292.978776 119,297.57 L119,172.57 C113.556884,173.835723 107.988317,174.483153 102.4,174.5 Z" id="green" fill="#8BD337"></path>
            <path d="M214,174.3 L179.7,174.3 L179.7,298.3 C201.603838,294.046312 222.276634,284.940031 240.2,271.65 L240.2,170.55 C231.685709,173.022337 222.865967,174.284704 214,174.3 Z" id="orange" fill="#FF8400"></path>
            <path d="M300.2,135.44 C299.53614,128.968756 298.44712,122.548215 296.94,116.22 C288.7,144.77 265.94,163.02 240.5,170.47 L240.2,170.55 L240.2,271.6 L240.5,271.38 C282.975276,239.761297 305.658835,188.109655 300.2,135.44 Z" id="red" fill="#C73F31"></path>
            <path d="M290.84,96.64 C261.226277,20.6513471 176.37667,-17.811322 99.71,10 L104,10 C109.624819,10.0260657 115.228093,10.6971165 120.7,12 C145.7,17.84 168.52,36.25 179.5,60.63 C184.023645,70.590769 186.37574,81.4001785 186.4,92.34 C186.368233,103.076367 184.014407,113.678814 179.5,123.42 C168.5,147.55 145.5,165.94 120.7,172.2 C120.13,172.35 119.57,172.48 119,172.61 L119,297.61 L120.7,297.98 C140.088678,301.942214 160.066798,302.057734 179.5,298.32 L179.7,298.32 L179.7,174.3 L214,174.3 C222.865967,174.284704 231.685709,173.022337 240.2,170.55 L240.5,170.47 C265.91,163.02 288.7,144.77 296.94,116.22 C295.356402,109.561631 293.318293,103.019633 290.84,96.64 L290.84,96.64 Z" id="yellow" fill="#F8DD00"></path>
            <path d="M179.5,60.59 C168.5,36.21 145.74,17.8 120.7,11.96 C115.226533,10.6705847 109.623279,10.0129573 104,10 L99.71,10 C48.3312487,28.6794653 11.1836847,73.8321902 2.75567094,127.847624 C-5.67234286,181.863058 15.9540182,236.186263 59.2,269.63 C59.73,270.04 60.26,270.45 60.8,270.85 L60.8,174.5 L102.4,174.5 C107.988317,174.483153 113.556884,173.835723 119,172.57 C119.57,172.44 120.13,172.31 120.7,172.16 C145.54,165.9 168.46,147.51 179.5,123.38 C184.014407,113.638814 186.368233,103.036367 186.4,92.3 C186.37574,81.3601785 184.023645,70.550769 179.5,60.59 Z" id="blue" fill="#426F98"></path>
        </g>
    </g>
</svg>