<?xml version="1.0" encoding="iso-8859-1"?>
<!DOCTYPE svg PUBLIC "-//W3C//DTD SVG 1.1//EN" "http://www.w3.org/Graphics/SVG/1.1/DTD/svg11.dtd">
<svg xmlns="http://www.w3.org/2000/svg" viewBox="0 0 300 250">
  <path d="M87 234.4V148c17-.2 34.3 2.8 50.3-3.3 31.2-14.3 44-50 40.8-80-1.4-15.3-3.3-28.5-16.3-41.7-5.3-5.4-19.8-16.8-39.2-21.2-58.2 10-103.2 60.8-103.2 122C19.3 172 47 214 87 234.3z"/>
  <path d="M239.7 111.4c-14.5 42.4-69.3 37.3-83.5 36.5-6.6-.6-6.7-1-6.7 5.5V247h4.6c60.3-5 108.3-53 113-113v-20.5C264.7 82 250.4 54 228.8 33.7c22 31.2 19 54.2 11 77.7z"/>
</svg>